<!-- <svg xmlns="http://www.w3.org/2000/svg"  aria-hidden="true" focusable="false" role="presentation" class="icon icon-user" viewbox="0 0 64 64"><path d="M35 39.84v-2.53c3.3-1.91 6-6.66 6-11.42 0-7.63 0-13.82-9-13.82s-9 6.19-9 13.82c0 4.76 2.7 9.51 6 11.42v2.53c-10.18.85-18 6-18 12.16h42c0-6.19-7.82-11.31-18-12.16" style="stroke-miterlimit:10"></path></svg> -->
<svg xmlns="http://www.w3.org/2000/svg" width="24" height="24" viewBox="0 0 24 24" fill="none">
<path d="M6.17651 5.82445C6.17651 9.04106 8.78337 11.6491 11.9997 11.6491C15.2164 11.6491 17.8244 9.04106 17.8244 5.82445C17.8244 2.60803 15.2164 0 11.9997 0C8.78337 0 6.17651 2.60803 6.17651 5.82445Z" fill="#28282C"/>
<path d="M12 14.8734C6.96406 14.8734 2.88013 18.9641 2.88013 24H21.1198C21.1198 18.9641 17.0361 14.8734 12 14.8734Z" fill="#28282C"/>
</svg>