<!-- <svg xmlns="http://www.w3.org/2000/svg"  aria-hidden="true" focusable="false" role="presentation" class="icon icon-cart" viewbox="0 0 64 64"><path d="M14 17.44h46.79l-7.94 25.61H20.96l-9.65-35.1H3" style="stroke-miterlimit:10"></path><circle cx="27" cy="53" r="2"></circle><circle cx="47" cy="53" r="2"></circle></svg> -->
<svg xmlns="http://www.w3.org/2000/svg" width="24" height="24" viewBox="0 0 24 24" fill="none">
<g clip-path="url(#clip0_2209_5056)">
<path d="M8.0001 19.9998C6.89643 19.9998 6 20.8944 6 22.0002C6 23.1036 6.89643 24 8.0001 24C9.10471 24 9.9999 23.1036 9.9999 22.0002C9.9999 20.8944 9.10471 19.9998 8.0001 19.9998Z" fill="#28282C"/>
<path d="M17.0001 19.9998C15.8955 19.9998 15 20.8944 15 22.0002C15 23.1036 15.8955 24 17.0001 24C18.1047 24 18.9999 23.1036 18.9999 22.0002C18.9999 20.8944 18.1047 19.9998 17.0001 19.9998Z" fill="#28282C"/>
<path d="M24 4.0002H4.63172L4.3125 1.97461C4.14059 0.888926 3.10049 0 2.0001 0H0V1.9998H2.29107L4.81951 18.0117C4.90529 18.555 5.42584 19.0002 5.97568 19.0002H21.9999V16.9998H6.68461L6.36838 15H21.9999L24 4.0002Z" fill="#28282C"/>
</g>
<defs>
<clipPath id="clip0_2209_5056">
<rect width="24" height="24" fill="white"/>
</clipPath>
</defs>
</svg>